<?xml version="1.0" encoding="UTF-8" standalone="no"?>
<!-- Created with Inkscape (http://www.inkscape.org/) -->

<svg
   width="69.898926mm"
   height="92.768608mm"
   viewBox="0 0 69.898926 92.768609"
   version="1.1"
   id="svg5"
   xml:space="preserve"
   inkscape:version="1.4 (1:1.4+202410161351+e7c3feb100)"
   sodipodi:docname="logo-tall.svg"
   inkscape:export-filename="001.pdf"
   inkscape:export-xdpi="299"
   inkscape:export-ydpi="299"
   xmlns:inkscape="http://www.inkscape.org/namespaces/inkscape"
   xmlns:sodipodi="http://sodipodi.sourceforge.net/DTD/sodipodi-0.dtd"
   xmlns="http://www.w3.org/2000/svg"
   xmlns:svg="http://www.w3.org/2000/svg"><sodipodi:namedview
     id="namedview7"
     pagecolor="#ffffff"
     bordercolor="#eeeeee"
     borderopacity="1"
     inkscape:showpageshadow="0"
     inkscape:pageopacity="0"
     inkscape:pagecheckerboard="true"
     inkscape:deskcolor="#505050"
     inkscape:document-units="mm"
     showgrid="false"
     showborder="true"
     inkscape:zoom="1.2642502"
     inkscape:cx="-156.21908"
     inkscape:cy="182.32151"
     inkscape:window-width="2560"
     inkscape:window-height="1403"
     inkscape:window-x="0"
     inkscape:window-y="0"
     inkscape:window-maximized="1"
     inkscape:current-layer="layer9"><inkscape:grid
       type="xygrid"
       id="grid5546"
       originx="-1285.4584"
       originy="-1767.9626"
       spacingy="1"
       spacingx="1"
       units="mm"
       visible="false" /></sodipodi:namedview><defs
     id="defs2"><filter
       style="color-interpolation-filters:sRGB"
       inkscape:label="Drop Shadow"
       id="filter6"
       x="-0.0017246601"
       y="-0.0040821556"
       width="1.0045991"
       height="1.0108857"><feFlood
         result="flood"
         in="SourceGraphic"
         flood-opacity="0.498039"
         flood-color="rgb(0,0,0)"
         id="feFlood5" /><feGaussianBlur
         result="blur"
         in="SourceGraphic"
         stdDeviation="0.050000000000000003"
         id="feGaussianBlur5" /><feOffset
         result="offset"
         in="blur"
         dx="0.080000000000000002"
         dy="0.080000000000000002"
         id="feOffset5"
         stdDeviation="0.10000000000000001" /><feComposite
         result="comp1"
         operator="in"
         in="flood"
         in2="offset"
         id="feComposite5" /><feComposite
         result="comp2"
         operator="over"
         in="SourceGraphic"
         in2="comp1"
         id="feComposite6" /></filter><filter
       style="color-interpolation-filters:sRGB"
       inkscape:label="Drop Shadow"
       id="filter6-7"
       x="-0.0025637457"
       y="-0.011681241"
       width="1.0068367"
       height="1.03115"><feFlood
         result="flood"
         in="SourceGraphic"
         flood-opacity="0.498039"
         flood-color="rgb(0,0,0)"
         id="feFlood5-5" /><feGaussianBlur
         result="blur"
         in="SourceGraphic"
         stdDeviation="0.050000000000000003"
         id="feGaussianBlur5-3" /><feOffset
         result="offset"
         in="blur"
         dx="0.080000000000000002"
         dy="0.080000000000000002"
         id="feOffset5-5"
         stdDeviation="0.10000000000000001" /><feComposite
         result="comp1"
         operator="in"
         in="flood"
         in2="offset"
         id="feComposite5-6" /><feComposite
         result="comp2"
         operator="over"
         in="SourceGraphic"
         in2="comp1"
         id="feComposite6-29" /></filter></defs><g
     inkscape:groupmode="layer"
     id="layer8"
     inkscape:label="Layer 6"
     transform="translate(-384.51094,-427.87621)" /><g
     inkscape:groupmode="layer"
     id="layer10"
     inkscape:label="Layer 8"
     transform="translate(-68.631151,48.521198)"><circle
       style="fill:#aaaa68;fill-opacity:1;stroke-width:0.4"
       id="path1-7"
       cx="81.849411"
       cy="2.6303511"
       r="4" /><circle
       style="fill:#80aa68;fill-opacity:1;stroke-width:0.4"
       id="path1-7-1"
       cx="106.12141"
       cy="-9.9494219"
       r="4" /><circle
       style="fill:#68dd68;fill-opacity:1;stroke-width:0.4"
       id="path1-7-2"
       cx="125.30409"
       cy="-25.722006"
       r="4" /><circle
       style="fill:#686868;fill-opacity:1;stroke-width:0.4"
       id="path1-7-2-4"
       cx="122.41429"
       cy="0.61686224"
       r="4" /><circle
       style="fill:#80cc68;fill-opacity:1;stroke-width:0.4"
       id="path1-7-2-91"
       cx="88.646866"
       cy="-17.722006"
       r="4" /><circle
       style="fill:#68ff68;fill-opacity:1;stroke-width:0.4"
       id="path1-7-15"
       cx="117.30409"
       cy="-44.521198"
       r="4" /><path
       style="fill:#000000;fill-opacity:1;stroke-width:0.2;stroke-dasharray:none"
       id="path16"
       d="m 87.8585,3.5357955 c 1.872514,-0.7306 3.766504,-1.403335 5.636945,-2.139231 1.594607,-0.66820796 3.210199,-1.33382196 4.658285,-2.29296896 0.752655,-0.49852204 0.871135,-0.64678704 1.514864,-1.22904204 0.442796,-0.451962 0.852146,-0.940851 1.172306,-1.488551 0.45966,-0.786353 0.96778,-1.498876 1.27071,-2.341288 0.002,-0.0273 0.022,-0.05972 0.006,-0.08191 -0.38805,-0.537043 -1.1781,1.50999 -1.24438,1.612826 -0.0177,0.02745 -0.0554,0.118131 -0.039,0.08986 1.02037,-1.765668 1.20356,-2.032204 0.77078,-1.382173 -0.4235,0.54333 -1.00932,0.913056 -1.59412,1.259197 -0.573411,0.322135 -1.17137,0.600175 -1.805341,0.778137 -0.05285,0.01212 -0.105449,0.0254 -0.158556,0.03634 -0.318313,0.06562 0.154709,-0.06786 0.08508,0.0993 -0.237535,0.570262 -0.643485,1.05832 -0.897605,1.621388 -0.03449,0.07642 0.14591,-0.0827 0.220475,-0.121028 0.101441,-0.05213 0.20493,-0.100179 0.307396,-0.15027 0.690007,-0.317455 1.372991,-0.648526 2.021575,-1.044552 0.869586,-0.57282 1.422286,-1.454356 1.751526,-2.475632 0.0382,-0.09433 0.0131,-0.203536 0.052,-0.297315 0.008,-0.0181 0.0455,-0.06377 0.0349,-0.0473 -1.0863,1.686716 -0.93547,1.015931 -1.08566,1.714746 0.32096,0.798171 0.56328,1.625481 0.81486,2.447374 0.18453,0.641173 0.37509,1.28057804 0.55983,1.92168004 0,0 1.06373,-1.56170604 1.06373,-1.56170604 v 0 c -0.2103,-0.618807 -0.41458,-1.239697 -0.59321,-1.868556 -0.2516,-0.85869 -0.48883,-1.721512 -0.75211,-2.57669 -0.0317,-0.04826 -0.0584,-0.189259 -0.0952,-0.144775 -1.778043,2.147128 -0.86073,0.98584 -1.21594,1.954821 -0.328811,0.617289 -0.18498,0.343805 0.84931,-1.437923 0.0288,-0.04957 -0.0589,0.0986 -0.0934,0.144375 -0.14358,0.190585 -0.3337,0.332603 -0.52113,0.476936 -0.629141,0.421235 -1.299407,0.773951 -2.000254,1.061593 -0.09894,0.04249 -0.196988,0.08713 -0.296834,0.12746 -0.0739,0.02985 -0.177109,0.01871 -0.224223,0.08299 -0.411615,0.561581 -1.612286,1.677546 -0.941597,1.864559 0.09443,0.02633 0.187553,-0.137904 0.284192,-0.07565 0.654264,-0.198953 1.271325,-0.493241 1.872485,-0.817369 0.591092,-0.325109 1.175261,-0.66983 1.641601,-1.166529 0.56148,-0.689158 0.13056,-0.143592 1.16922,-1.966823 0.0187,-0.0329 0.0688,-0.13448 0.0474,-0.103209 -0.36342,0.532384 -0.6797,1.098251 -1.0745,1.607797 -0.0276,0.03567 -0.0718,-0.05467 -0.10771,-0.082 -0.006,0.01368 -0.0112,0.02738 -0.0169,0.04108 -0.21855,0.571945 -0.71881,1.301546 0.60347,-0.928476 0.09,-0.151841 -0.17165,0.308841 -0.26779,0.456888 -0.36442,0.561163 -0.44808,0.621901 -0.90399,1.1591 -0.630506,0.610211 -0.768142,0.788337 -1.513182,1.311111 -1.426798,1.001146 -3.043412,1.68610004 -4.647977,2.34233504 -1.807002,0.695531 -3.632164,1.34806796 -5.500422,1.86169596 z" /><path
       style="fill:#000000;fill-opacity:1;stroke-width:0.2;stroke-dasharray:none"
       id="path17"
       d="m 100.82083,-10.518077 c -0.61801,0.146039 -1.262044,0.216339 -1.897054,0.166484 -0.154588,-0.01214 -0.307639,-0.03923 -0.461458,-0.05885 -0.728223,-0.141804 -1.439505,-0.372761 -2.11319,-0.683924 -0.461057,-0.212956 -0.627452,-0.323424 -1.06783,-0.579046 -0.862339,-0.510149 -1.576513,-1.212684 -2.331699,-1.859757 -0.05701,-0.03518 -0.109021,-0.08019 -0.171036,-0.105531 -0.04981,-0.02035 -0.234941,-0.05306 -0.279189,0.0227 -0.349175,0.597741 -0.674101,1.210524 -0.969331,1.836669 -0.02585,0.05482 0.01216,0.120607 0.01802,0.180932 0.0064,0.06571 0.0125,0.131445 0.01875,0.197168 0.04188,0.405241 0.06174,0.812152 0.07124,1.219295 0.03286,0.2273035 -0.05845,0.4922785 0.0472,0.7039025 0.991824,0.745826 1.318926,-2.2104025 1.421086,-2.7921025 0.108953,-0.524269 0.150918,-1.058677 0.229718,-1.587225 0.258109,-0.63278 0.361876,-0.873199 -0.835183,1.469477 -0.0183,0.03582 0.06341,-0.05826 0.103449,-0.06213 0.08803,-0.0085 0.177211,0.0095 0.263966,0.02666 0.243187,0.04812 0.610856,0.176028 0.835616,0.24874 0.914077,0.323252 1.848011,0.572569 2.807368,0.711571 0.09702,0.01098 0.19405,0.02193 0.291076,0.03292 0,0 0.88311,-1.70043 0.88311,-1.70043 v 0 c -0.09794,-0.0042 -0.195879,-0.0084 -0.29382,-0.01259 -0.309782,-0.02622 -0.466992,-0.03324 -0.782534,-0.08856 -0.685474,-0.120174 -1.353405,-0.328729 -2.004246,-0.571513 -0.285351,-0.110075 -0.543067,-0.214321 -0.832219,-0.309081 -0.103141,-0.0338 -0.205438,-0.07305 -0.312246,-0.09235 -0.856611,-0.154779 -1.176367,1.144394 -1.291515,1.914192 -0.04558,0.5139 -0.107276,1.026178 -0.203378,1.533429 -0.02214,0.121341 -0.04358,0.242811 -0.06641,0.364025 -0.03111,0.165139 -0.08308,0.4561325 -0.137675,0.6243475 -0.02037,0.06274 -0.118258,0.234457 -0.07904,0.181419 1.134151,-1.5338715 0.569336,-1.9082535 1.116623,-1.5335935 -1.49e-4,-0.213661 -0.01595,-0.427344 -0.02173,-0.640866 -0.01947,-0.406918 -0.04591,-0.813337 -0.07836,-1.219438 -0.0024,-0.06532 -0.0082,-0.130614 -0.0071,-0.195971 9.53e-4,-0.05756 0.0449,-0.220292 0.01326,-0.172199 -0.333885,0.507479 -0.599363,1.057677 -0.930789,1.566765 -0.02081,0.03197 -0.02416,-0.07628 -0.01538,-0.113406 0.02753,-0.116324 0.182007,-5.29e-4 0.209812,0.01045 0.821561,0.566595 1.536898,1.2802 2.400404,1.790049 0.179765,0.1057985 0.355962,0.2179075 0.539295,0.3173965 0.843119,0.457533 1.74831,0.806894 2.684269,1.016857 0.15885,0.02445 0.316576,0.05789 0.476551,0.07333 0.631574,0.06097 1.270948,-0.003 1.899116,-0.06662 z" /><path
       style="fill:#000000;fill-opacity:1;stroke-width:0.2;stroke-dasharray:none"
       id="path18"
       d="m 111.17533,-11.218905 c 1.09188,-0.37995 2.1984,-0.732113 3.24078,-1.238592 0.26096,-0.126799 0.51273,-0.271703 0.7691,-0.407556 1.33331,-0.760026 2.44489,-1.839598 3.50013,-2.940227 0.43865,-0.473932 0.82933,-0.99074 1.15523,-1.548614 0.60607,-1.037485 1.17495,-1.971384 1.64217,-3.047281 0.23687,-0.555987 0.41427,-1.133816 0.49388,-1.733047 -0.004,-0.172101 0.0574,-0.368522 0.0123,-0.539118 -0.39619,0.552876 -0.79947,1.100744 -1.18858,1.658626 -0.0237,0.03395 -0.0324,0.07621 -0.0481,0.114488 -0.0566,0.137332 -0.10206,0.279471 -0.16631,0.413385 -0.0378,0.07877 -0.0855,0.152405 -0.12824,0.228607 0.26745,-0.475636 0.53489,-0.951269 0.80234,-1.426905 -0.32901,0.443833 -0.84661,0.55676 -1.36435,0.626271 -0.22378,0.01905 -0.44955,0.03598 -0.67441,0.027 -0.029,-0.0011 -0.0583,-0.01365 -0.0867,-0.0076 -0.0236,0.005 0.0476,0.0072 0.0714,0.01087 -1.38863,2.579169 -1.28439,1.843905 -0.52567,1.482542 0.27736,-0.132098 0.5656,-0.241826 0.85053,-0.356071 0.45405,-0.164171 0.90551,-0.332772 1.32467,-0.574082 0.0495,-0.04542 0.38552,-0.207296 0.40769,-0.263226 0.004,-0.0099 -0.015,-0.01527 -0.0225,-0.02289 0.0226,0.12296 0.0881,0.274781 0.12796,0.392118 0.0547,0.16133 0.18293,0.534466 0.24569,0.677749 0.0618,0.141176 0.13625,0.276516 0.20437,0.414774 0.34889,0.645832 0.75195,1.26038 1.1933,1.846305 0,0 1.01477,-1.613636 1.01477,-1.613636 v 0 c -0.45814,-0.550252 -0.86463,-1.143697 -1.17596,-1.790336 -0.19056,-0.445373 -0.16873,-0.359889 -0.30338,-0.799443 -0.0724,-0.236429 -0.11114,-0.546836 -0.25363,-0.758384 -0.0319,-0.04733 -0.0797,-0.08174 -0.11948,-0.122602 -0.0385,-0.01328 -0.0747,-0.03839 -0.11543,-0.03983 -0.0678,-0.0024 -0.33254,0.289433 -0.41572,0.29559 -0.0825,0.05469 -0.23862,0.160244 -0.32136,0.206171 -0.31332,0.173905 -0.65846,0.287575 -0.98998,0.41974 -0.35013,0.139801 -0.70159,0.278408 -1.05315,0.413909 -0.0552,0.02127 -0.13713,0.0055 -0.16839,0.05573 -0.36259,0.582088 -0.65985,1.202404 -0.98978,1.803603 0.0353,0.02408 0.0659,0.0574 0.10602,0.07225 0.0328,0.01214 0.22066,0.0031 0.24072,0.0024 0.19231,-0.0075 0.38443,-0.02064 0.57565,-0.04267 0.54184,-0.07147 1.11624,-0.153011 1.51266,-0.566018 0.36876,-0.621321 0.74361,-1.239065 1.10627,-1.863966 0.12226,-0.210658 0.21447,-0.457954 0.29541,-0.68743 0.0171,-0.04856 0.076,-0.188319 0.0439,-0.148097 -0.40365,0.505134 -0.77665,1.034023 -1.16497,1.551037 -0.005,0.151181 -0.005,0.31664 -0.0277,0.471266 -0.0822,0.563282 -0.2554,1.106368 -0.48017,1.628986 -0.0652,0.146204 -0.12642,0.294198 -0.19545,0.438613 -0.26162,0.547317 -0.70581,1.295678 0.36613,-0.549029 0.10425,-0.179403 -0.20753,0.359614 -0.3211,0.533271 -0.33161,0.507082 -0.41825,0.583083 -0.80981,1.053526 -0.50719,0.545443 -1.02804,1.069951 -1.58157,1.56909 -0.33802,0.304816 -0.82986,0.729266 -1.19983,0.992873 -0.22097,0.15745 -0.45598,0.294214 -0.68397,0.441322 -0.25241,0.138001 -0.49924,0.286753 -0.75723,0.414009 -0.87985,0.433983 -1.83485,0.767816 -2.78895,0.996511 -0.10957,0.02627 -0.2215,0.04142 -0.33225,0.06213 z" /><path
       style="fill:#000000;fill-opacity:1;stroke-width:0.2;stroke-dasharray:none"
       id="path19"
       d="m 121.10971,-29.205235 c -0.54745,-0.308393 -0.95925,-0.802927 -1.3473,-1.285672 -0.55327,-0.761525 -0.95993,-1.611248 -1.30323,-2.483779 -0.2709,-0.745097 -0.50297,-1.505285 -0.64849,-2.285035 -0.10125,-0.662688 -0.13008,-1.335421 -0.10691,-2.004816 0.002,-0.465064 0.11512,-0.916359 0.20451,-1.369525 0.0496,-0.1551 0.062,-0.471132 0.14694,-0.601455 -1.69382,2.183642 -1.51655,2.110536 -0.3539,0.04337 0.0346,-0.06153 -0.075,0.119665 -0.11403,0.178473 -0.14331,0.215773 -0.29752,0.423121 -0.45392,0.62944 -0.32271,0.416619 -0.69585,0.791707 -1.0829,1.148168 -0.3025,0.264801 -0.58111,0.556281 -0.88401,0.820378 -0.55524,0.394959 -1.74805,1.784234 -0.8406,1.878912 0.13641,0.01423 0.46302,-0.177045 0.57802,-0.235179 0.4373,-0.218695 0.84998,-0.491464 1.23007,-0.798736 0.79858,-0.743617 1.28514,-1.771326 1.67781,-2.781169 0.14042,-0.312583 0.19836,-0.651183 0.29712,-0.976242 0.33123,-0.614714 0.14774,-0.272951 -0.89033,1.565222 -0.0224,0.0396 0.0302,-0.09097 0.10257,-0.100073 0.089,-0.01118 0.17578,0.05967 0.2427,0.09779 0.35781,0.260008 0.66012,0.586235 0.96869,0.900857 0.28064,0.292375 0.61182,0.517699 0.97182,0.699004 0.26779,0.124727 0.55274,0.198819 0.84421,0.239438 0.0266,0.0043 0.0532,0.0085 0.0797,0.01278 0,0 0.92195,-1.747372 0.92195,-1.747372 v 0 c -0.0295,-0.0038 -0.059,-0.0076 -0.0886,-0.01138 -0.27332,-0.01971 -0.54269,-0.07181 -0.79391,-0.185737 -0.34241,-0.169335 -0.6554,-0.381722 -0.92106,-0.659344 -0.3219,-0.323883 -0.64489,-0.649795 -1.00525,-0.931356 -0.1266,-0.08191 -0.20451,-0.149097 -0.35319,-0.183759 -0.0265,-0.0062 -0.20881,-0.02246 -0.24151,0.0301 -0.9877,1.587948 -0.87006,1.1069 -1.03658,1.83793 -0.0698,0.319827 -0.17085,0.631443 -0.29541,0.934253 -0.26853,0.651553 -0.82068,1.516669 0.67547,-1.042783 0.0375,-0.06419 -0.0746,0.128783 -0.11666,0.190134 -0.041,0.05986 -0.0847,0.118029 -0.13204,0.17303 -0.0476,0.05535 -0.1015,0.104973 -0.15225,0.15746 -0.19614,0.173468 -0.33815,0.27986 -0.55519,0.425846 -0.20679,0.139094 -0.39882,0.303357 -0.63529,0.392429 -0.15584,0.08106 -0.21482,0.115981 -0.37014,0.182131 -0.0384,0.01635 -0.10794,0.0036 -0.11706,0.04437 -0.009,0.0419 0.10497,0.05803 0.0855,0.09632 -0.29178,0.574764 -0.66478,1.104767 -0.98054,1.666713 -0.0173,0.03073 0.0545,-0.04473 0.0817,-0.0671 0.32808,-0.25525 0.59167,-0.584077 0.90823,-0.853383 0.39478,-0.352459 0.77749,-0.720213 1.11309,-1.130668 0.15645,-0.201417 0.30885,-0.404587 0.45831,-0.611215 0.0386,-0.05337 0.0832,-0.102789 0.11661,-0.15953 1.4843,-2.517623 1.37664,-2.22891 -0.15809,-0.298731 -0.006,0.198931 -0.0932,0.390927 -0.10593,0.589849 -0.0801,0.447558 -0.16026,0.896787 -0.15229,1.35366 -7.9e-4,0.675286 0.0212,1.355512 0.14607,2.020708 0.16633,0.776699 0.41162,1.534132 0.69763,2.274864 0.36387,0.882973 0.77499,1.748794 1.3438,2.521325 0.40541,0.509971 0.82874,1.020473 1.35506,1.411235 z" /></g><g
     inkscape:groupmode="layer"
     id="layer9"
     inkscape:label="Layer 7"
     transform="translate(-68.631151,48.521198)"><path
       style="font-size:29.6333px;line-height:1;font-family:Cabin;-inkscape-font-specification:'Cabin, Normal';letter-spacing:0px;word-spacing:0px;fill:#0055d4;stroke-width:0.264583;filter:url(#filter6)"
       d="m 75.981676,29.688532 c 4.296829,0 6.489693,-3.31893 6.489693,-7.556492 0,-3.970862 -2.400297,-7.556492 -6.460059,-7.556492 -2.370664,0 -3.644896,0.859366 -4.889495,2.370664 l -0.296333,-2.074331 h -2.074331 v 21.691576 h 2.666997 v -9.008523 c 1.096432,1.422398 3.259663,2.133598 4.563528,2.133598 z m -0.296333,-12.74232 c 2.548464,0 4.059763,2.222498 4.059763,5.185828 0,2.844797 -1.511299,5.185828 -4.059763,5.185828 -2.133597,0 -4.415361,-1.540932 -4.415361,-5.185828 0,-3.49673 2.281764,-5.185828 4.415361,-5.185828 z m 21.92862,5.185828 c 0.0889,-0.503766 0.118533,-1.007532 0.118533,-1.422399 0,-3.911595 -2.637363,-6.134093 -6.252626,-6.134093 -4.504262,0 -7.111992,3.378196 -7.111992,7.437959 0,4.178295 2.726263,7.675025 7.852824,7.675025 2.103965,0 3.733796,-0.6223 4.859862,-1.126066 l -0.3556,-2.103964 c -1.303865,0.592666 -2.844797,0.859366 -4.178295,0.859366 -2.755897,0 -5.067295,-1.155699 -5.452528,-5.185828 z m -6.19336,-5.185828 c 2.429931,0 3.555996,1.303865 3.555996,3.348563 h -7.645391 c 0.533399,-2.103964 1.718731,-3.348563 4.089395,-3.348563 z m 16.624257,10.608722 h -0.68157 c -2.87443,0 -3.05223,-0.1778 -3.05223,-2.96333 v -7.645392 h 3.8227 v -2.074331 h -3.8227 v -3.852329 l -2.66699,0.2667 v 3.585629 h -2.252135 l -0.237066,2.074331 h 2.489201 v 9.275223 c 0,1.748365 1.03716,3.467097 3.79306,3.467097 h 2.4003 z m 14.54995,0 h -0.2667 c -1.54094,0 -1.65947,-0.977899 -1.65947,-3.05223 v -2.96333 c 0,-5.245094 -1.45203,-6.963826 -5.12656,-6.963826 -1.92616,0 -3.76343,0.622299 -4.91913,1.511299 l 0.38523,2.16323 c 1.54094,-1.066798 2.72627,-1.303865 3.8227,-1.303865 2.0447,0 3.17076,0.592666 3.17076,3.348563 -3.70416,0.05927 -8.68255,1.096432 -8.68255,5.185828 0,2.429931 1.77799,4.207929 4.47462,4.207929 1.8669,0 3.34857,-0.859366 4.445,-2.133598 0.59267,1.363132 1.1557,2.133598 3.7338,2.133598 h 0.20743 z m -4.59317,-1.955798 c -0.85936,1.185332 -2.28176,1.955798 -3.70416,1.955798 -1.3335,0 -2.25213,-0.651933 -2.25213,-2.222498 0,-2.163231 1.71873,-3.05223 5.95629,-3.200396 z m 13.74984,4.089396 c 3.70417,0 6.5786,-3.31893 6.5786,-7.556492 0,-3.970862 -2.4892,-7.556492 -6.54896,-7.556492 -1.30387,0 -3.25967,0.3556 -4.50427,1.866898 V 7.167223 h -2.66699 v 22.224976 h 2.37066 l 0.29633,-1.837265 c 1.09644,1.422398 3.17077,2.133598 4.47463,2.133598 z m -0.29633,-12.74232 c 2.54846,0 4.14866,2.222498 4.14866,5.185828 0,2.844797 -1.6002,5.185828 -4.14866,5.185828 -2.1336,0 -4.32646,-1.540932 -4.32646,-5.185828 0,-3.49673 2.19286,-5.185828 4.32646,-5.185828 z"
       id="text12"
       aria-label="petab" /><path
       style="font-weight:bold;font-size:14.1111px;line-height:1;font-family:Cabin;-inkscape-font-specification:'Cabin, Normal';letter-spacing:0px;word-spacing:0px;stroke-width:0.264583;filter:url(#filter6-7)"
       d="m 86.01814,44.088596 c 3.33022,0 3.824108,-1.749776 3.824108,-2.878664 0,-2.17311 -1.876776,-2.737554 -3.414886,-3.20322 -1.072444,-0.324555 -1.989665,-0.634999 -1.989665,-1.425221 0,-0.846666 1.044221,-1.044222 1.806221,-1.044222 0.945443,0 1.834443,0.310445 2.892775,0.889 l 0.183444,-1.848554 c -0.507999,-0.338667 -1.792109,-0.762 -3.146775,-0.762 -2.666998,0 -3.570108,1.650999 -3.570108,2.963331 0,1.763888 1.523998,2.257776 2.920997,2.737554 1.199444,0.409222 2.30011,0.761999 2.30011,1.763887 0,0.804333 -0.705555,1.072444 -1.763888,1.072444 -1.481665,0 -2.56822,-0.522111 -3.104442,-1.044222 l -0.211666,2.060221 c 0.564444,0.366889 1.777998,0.719666 3.273775,0.719666 z m 11.782767,-0.197555 v -1.749777 h -4.61433 v -2.525887 h 3.471331 v -1.749776 h -3.471331 v -2.102554 h 4.473219 v -1.749776 h -6.321773 v 9.87777 z m 7.422453,0 v -1.749777 h -4.064 v -8.127993 h -1.806221 v 9.87777 z m 7.64821,0 v -1.749777 h -4.61433 v -2.525887 h 3.47133 v -1.749776 h -3.47133 v -2.102554 h 4.47322 v -1.749776 h -6.32177 v 9.87777 z m 5.70089,0.197555 c 1.03011,0 2.08844,-0.225777 2.80811,-0.578555 l -0.19756,-1.721554 c -0.81844,0.324555 -1.58044,0.564444 -2.61055,0.564444 -1.91911,0 -2.89278,-1.425221 -2.89278,-3.400775 0,-1.975554 0.97367,-3.400775 2.89278,-3.400775 1.03011,0 1.79211,0.239888 2.61055,0.564444 l 0.19756,-1.721555 c -0.71967,-0.352777 -1.778,-0.578555 -2.80811,-0.578555 -2.82222,0 -4.86833,2.031999 -4.86833,5.136441 0,3.104442 2.04611,5.13644 4.86833,5.13644 z m 10.83731,-8.325549 v -1.749776 h -7.39421 v 1.749776 h 2.79399 v 8.127994 h 1.80623 v -8.127994 z"
       id="text12-1"
       aria-label="SELECT" /></g><g
     inkscape:groupmode="layer"
     id="layer6"
     inkscape:label="bgs"
     style="display:inline"
     transform="translate(-384.51094,-427.8762)" /></svg>
